<svg width="22" height="22" viewBox="0 0 22 22" fill="none" xmlns="http://www.w3.org/2000/svg">
<path d="M18.4999 10.9999C18.4999 15.1422 15.1422 18.4999 10.9999 18.4999C6.85772 18.4999 3.5 15.1422 3.5 10.9999C3.5 6.85772 6.85772 3.5 10.9999 3.5C15.1422 3.5 18.4999 6.85772 18.4999 10.9999Z" stroke="#0EDFED" stroke-linecap="round" stroke-linejoin="round"/>
<path d="M13.2352 8.39216C12.7248 7.88177 11.8262 7.52711 10.9999 7.50475M8.76465 13.2353C9.24449 13.876 10.1379 14.2411 10.9999 14.2717M10.9999 7.50475C10.0164 7.47793 9.13719 7.92275 9.13719 9.13725C9.13719 11.3725 13.2352 10.2549 13.2352 12.4902C13.2352 13.765 12.1444 14.3127 10.9999 14.2717M10.9999 7.50475V6.15688M10.9999 14.2717V15.8431" stroke="#0EDFED" stroke-linecap="round" stroke-linejoin="round"/>
</svg>
