<svg width="22" height="22" viewBox="0 0 22 22" fill="none" xmlns="http://www.w3.org/2000/svg">
<path d="M3 5.52632H19V16.4737H3V5.52632ZM11 8.26316C11.7072 8.26316 12.3855 8.5515 12.8856 9.06476C13.3857 9.57802 13.6667 10.2741 13.6667 11C13.6667 11.7259 13.3857 12.422 12.8856 12.9352C12.3855 13.4485 11.7072 13.7368 11 13.7368C10.2928 13.7368 9.61448 13.4485 9.11438 12.9352C8.61428 12.422 8.33333 11.7259 8.33333 11C8.33333 10.2741 8.61428 9.57802 9.11438 9.06476C9.61448 8.5515 10.2928 8.26316 11 8.26316ZM6.04094 6.78947C6.04094 7.27338 5.85363 7.73746 5.52024 8.07963C5.18684 8.42181 4.73465 8.61404 4.26316 8.61404V13.386C4.73465 13.386 5.18684 13.5782 5.52024 13.9204C5.85363 14.2625 6.04094 14.7266 6.04094 15.2105H15.9591C15.9591 14.7266 16.1464 14.2625 16.4798 13.9204C16.8132 13.5782 17.2653 13.386 17.7368 13.386V8.61404C17.2653 8.61404 16.8132 8.42181 16.4798 8.07963C16.1464 7.73746 15.9591 7.27338 15.9591 6.78947H6.04094Z" fill="white"/>
<ellipse cx="6.25812" cy="11.0484" rx="0.842105" ry="0.890456" fill="white"/>
<ellipse cx="15.8607" cy="11.0484" rx="0.842105" ry="0.890456" fill="white"/>
</svg>
