<?xml version="1.0" standalone="no"?>
<!DOCTYPE svg PUBLIC "-//W3C//DTD SVG 20010904//EN"
 "http://www.w3.org/TR/2001/REC-SVG-20010904/DTD/svg10.dtd">
<svg version="1.0" xmlns="http://www.w3.org/2000/svg"
 width="784.000000pt" height="784.000000pt" viewBox="0 0 784.000000 784.000000"
 preserveAspectRatio="xMidYMid meet">
<metadata>
Created by potrace 1.14, written by Peter Selinger 2001-2017
</metadata>
<g transform="translate(0.000000,784.000000) scale(0.100000,-0.100000)"
fill="#000000" stroke="none">
<path d="M3670 7827 c-3 -3 -45 -8 -95 -11 -382 -29 -856 -148 -1216 -306
-126 -56 -315 -151 -394 -199 -37 -23 -69 -41 -71 -41 -19 0 -413 -278 -460
-324 -6 -6 -30 -27 -54 -46 -66 -53 -183 -164 -286 -270 -407 -420 -713 -925
-899 -1485 -57 -172 -120 -423 -141 -562 -3 -21 -7 -45 -9 -53 -2 -8 -7 -44
-11 -80 -3 -36 -8 -68 -10 -71 -17 -31 -26 -632 -11 -801 127 -1439 1038
-2689 2377 -3261 368 -157 758 -253 1205 -296 92 -9 650 -7 695 2 14 3 54 8
90 12 36 4 74 9 85 10 11 2 40 7 65 10 239 34 678 155 857 236 23 10 44 19 47
19 7 0 147 65 247 115 529 263 1010 663 1371 1141 449 594 711 1281 778 2039
9 100 6 608 -4 675 -2 19 -7 62 -11 95 -31 308 -155 785 -268 1037 -9 18 -32
71 -53 118 -236 538 -649 1066 -1134 1452 -487 387 -1074 657 -1686 777 -86
17 -178 31 -364 56 -55 7 -634 18 -640 12z"/>
</g>
</svg>
