<svg width="22" height="22" viewBox="0 0 22 22" fill="none" xmlns="http://www.w3.org/2000/svg">
<path d="M10.3738 16.545L7.83919 17.0584C7.16334 17.2295 5.54115 17.0926 5.81151 13.1227C5.52989 13.0656 4.89907 12.9173 4.62871 12.7804C4.34709 12.6663 3.91902 12.1986 4.45974 11.2404C4.79771 10.67 5.50743 9.46073 5.64258 9.18694V7.64688C5.64258 6.16386 6.45365 2.99248 9.69794 2.17112C9.92324 2.11408 10.5766 2 11.3877 2C12.5142 2 15.0037 2.44491 16.6259 4.22453C18.0296 5.76459 19.397 8.9816 16.9638 12.9515C16.4569 13.693 15.443 15.3472 15.443 16.0317V19.6251" stroke="white" stroke-linecap="round" stroke-linejoin="round"/>
<path d="M9.14746 19.5633V17.0896" stroke="white" stroke-linecap="round"/>
<path fill-rule="evenodd" clip-rule="evenodd" d="M11.8624 6.33283C10.5898 6.33283 9.70821 7.24297 9.70821 8.35237C9.70821 8.8823 9.93655 9.22751 10.2381 9.59318L10.3534 9.72943C10.4735 9.87161 10.6065 10.0289 10.7158 10.1861C10.8688 10.4075 11.005 10.6687 11.0503 10.9886C11.061 11.0925 11.0311 11.1965 10.9668 11.2789C10.9025 11.3612 10.8088 11.4154 10.7054 11.4301C10.6019 11.4448 10.4968 11.4189 10.4121 11.3577C10.3274 11.2966 10.2697 11.205 10.2511 11.1022C10.2295 10.9503 10.1633 10.8076 10.0518 10.646C9.96067 10.5192 9.86325 10.397 9.75991 10.2798C9.71467 10.226 9.66674 10.1694 9.61558 10.1075C9.27791 9.69874 8.90039 9.16881 8.90039 8.35237C8.90039 6.76905 10.173 5.52501 11.8624 5.52501C13.5518 5.52501 14.8244 6.76905 14.8244 8.35237C14.8244 9.16881 14.4469 9.69874 14.1092 10.1075C14.058 10.1694 14.0101 10.226 13.9649 10.2793C13.8534 10.4112 13.7586 10.5232 13.6735 10.646C13.5615 10.8076 13.4958 10.9503 13.4743 11.1022C13.4668 11.1547 13.449 11.2052 13.422 11.2509C13.395 11.2965 13.3592 11.3364 13.3168 11.3682C13.2743 11.4 13.2261 11.4232 13.1747 11.4364C13.1233 11.4495 13.0698 11.4525 13.0173 11.445C12.9648 11.4375 12.9143 11.4197 12.8686 11.3927C12.823 11.3657 12.7831 11.3299 12.7513 11.2875C12.7194 11.2451 12.6963 11.1968 12.6831 11.1454C12.6699 11.094 12.667 11.0405 12.6745 10.988C12.7198 10.6687 12.856 10.4075 13.009 10.1861C13.1183 10.0289 13.2513 9.87161 13.3714 9.72943C13.4118 9.68204 13.4506 9.63626 13.4861 9.59318C13.7882 9.22751 14.0166 8.8823 14.0166 8.35237C14.0166 7.24297 13.135 6.33283 11.8624 6.33283ZM10.7853 13.7378C10.7853 13.6307 10.8279 13.528 10.9036 13.4522C10.9793 13.3765 11.0821 13.3339 11.1892 13.3339H12.5356C12.6427 13.3339 12.7454 13.3765 12.8212 13.4522C12.8969 13.528 12.9395 13.6307 12.9395 13.7378C12.9395 13.8449 12.8969 13.9477 12.8212 14.0234C12.7454 14.0992 12.6427 14.1417 12.5356 14.1417H11.1892C11.0821 14.1417 10.9793 14.0992 10.9036 14.0234C10.8279 13.9477 10.7853 13.8449 10.7853 13.7378ZM10.6507 11.9876C10.5435 11.9876 10.4408 12.0301 10.3651 12.1059C10.2893 12.1816 10.2468 12.2843 10.2468 12.3915C10.2468 12.4986 10.2893 12.6013 10.3651 12.6771C10.4408 12.7528 10.5435 12.7954 10.6507 12.7954H13.0741C13.1812 12.7954 13.284 12.7528 13.3597 12.6771C13.4355 12.6013 13.478 12.4986 13.478 12.3915C13.478 12.2843 13.4355 12.1816 13.3597 12.1059C13.284 12.0301 13.1812 11.9876 13.0741 11.9876H10.6507Z" fill="white"/>
</svg>
