<svg width="22" height="22" viewBox="0 0 22 22" fill="none" xmlns="http://www.w3.org/2000/svg">
<path d="M17.8542 15.7727H5.3125V5.13636C5.3125 5.06136 5.24687 5 5.16667 5H4.14583C4.06562 5 4 5.06136 4 5.13636V16.8636C4 16.9386 4.06562 17 4.14583 17H17.8542C17.9344 17 18 16.9386 18 16.8636V15.9091C18 15.8341 17.9344 15.7727 17.8542 15.7727ZM7.24115 13.1426C7.29766 13.1955 7.3888 13.1955 7.44714 13.1426L9.96823 10.7972L12.2943 12.9858C12.3508 13.0386 12.4437 13.0386 12.5003 12.9858L17.5206 8.29318C17.5771 8.24034 17.5771 8.15341 17.5206 8.10057L16.7987 7.42557C16.7713 7.40019 16.7343 7.38595 16.6957 7.38595C16.6571 7.38595 16.6201 7.40019 16.5927 7.42557L12.4 11.3443L10.0776 9.15909C10.0502 9.13371 10.0132 9.11948 9.97461 9.11948C9.93604 9.11948 9.89902 9.13371 9.87161 9.15909L6.52109 12.2733C6.49395 12.2989 6.47873 12.3335 6.47873 12.3696C6.47873 12.4057 6.49395 12.4403 6.52109 12.4659L7.24115 13.1426Z" fill="white"/>
</svg>
