<svg width="22" height="22" viewBox="0 0 22 22" fill="none" xmlns="http://www.w3.org/2000/svg">
<path d="M17.6334 13.5655L16.232 12.1176V8.54982C16.2507 7.22496 15.8021 5.93791 14.9693 4.92631C14.1364 3.91471 12.9754 3.24689 11.7007 3.04615C10.9609 2.94605 10.2089 3.00921 9.49471 3.2314C8.78056 3.4536 8.12073 3.82973 7.55927 4.33469C6.9978 4.83965 6.5476 5.46183 6.23871 6.15972C5.92982 6.85762 5.76934 7.61517 5.76798 8.38183V12.1176L4.36655 13.5655C4.19052 13.7494 4.07115 13.9825 4.02335 14.2357C3.97556 14.4889 4.00147 14.751 4.09785 14.9891C4.19422 15.2273 4.35678 15.431 4.5652 15.5747C4.77363 15.7185 5.01867 15.7959 5.2697 15.7974H7.8857V16.0694C7.92207 16.8815 8.27028 17.6457 8.85404 18.1945C9.43779 18.7433 10.2095 19.0319 11 18.9972C11.7905 19.0319 12.5622 18.7433 13.146 18.1945C13.7297 17.6457 14.0779 16.8815 14.1143 16.0694V15.7974H16.7303C16.9813 15.7959 17.2264 15.7185 17.4348 15.5747C17.6432 15.431 17.8058 15.2273 17.9022 14.9891C17.9985 14.751 18.0244 14.4889 17.9766 14.2357C17.9289 13.9825 17.8095 13.7494 17.6334 13.5655ZM12.5571 16.0694C12.514 16.4541 12.328 16.807 12.0379 17.0543C11.7478 17.3017 11.376 17.4246 11 17.3973C10.624 17.4246 10.2522 17.3017 9.9621 17.0543C9.67203 16.807 9.48603 16.4541 9.44285 16.0694V15.7974H12.5571V16.0694ZM5.94705 14.1975L6.86577 13.2535C7.0115 13.1047 7.12711 12.9277 7.20595 12.7327C7.28479 12.5378 7.32529 12.3287 7.32513 12.1176V8.38183C7.32555 7.84219 7.43832 7.30888 7.65586 6.81769C7.87341 6.32651 8.19069 5.88883 8.58642 5.534C8.97681 5.17057 9.43941 4.89864 9.94218 4.73704C10.445 4.57543 10.9759 4.52801 11.4983 4.59806C12.3987 4.74827 13.216 5.22763 13.7997 5.94788C14.3834 6.66813 14.6942 7.58079 14.6749 8.51782V12.1176C14.6737 12.3282 14.713 12.5369 14.7905 12.7318C14.8679 12.9267 14.9821 13.104 15.1264 13.2535L16.0529 14.1975H5.94705Z" fill="white"/>
</svg>
