<svg width="22" height="22" viewBox="0 0 22 22" fill="none" xmlns="http://www.w3.org/2000/svg">
<path d="M11.0002 19.5717C14.308 19.5717 17.0004 16.8793 17.0004 13.5715C17.0004 10.2637 14.308 7.57132 11.0002 7.57132C7.69152 7.57132 5 10.2637 5 13.5715C5 16.8793 7.69152 19.5717 11.0002 19.5717ZM11.0002 9.28566C13.3634 9.28566 15.286 11.2083 15.286 13.5715C15.286 15.9347 13.3634 17.8574 11.0002 17.8574C8.63698 17.8574 6.71434 15.9347 6.71434 13.5715C6.71434 11.2083 8.63698 9.28566 11.0002 9.28566ZM10.143 2.42829H6.71434V7.15816C7.7401 6.47176 8.91622 6.04277 10.143 5.90755V2.42829ZM15.286 2.42829H11.8574V5.90755C13.0842 6.04277 14.2603 6.47176 15.286 7.15816V2.42829Z" fill="white"/>
<path d="M9.30145 14.2667L8.9003 16.6033L10.9995 15.5001L13.0987 16.6033L12.6976 14.2667L14.3965 12.6106L12.0495 12.2695L10.9995 10.1428L9.94947 12.2695L7.60254 12.6106L9.30145 14.2667Z" fill="white"/>
</svg>
